<svg width="256" height="256" viewBox="0 0 256 256" fill="none" xmlns="http://www.w3.org/2000/svg">
  <defs>
    <linearGradient id="boxdrop-top" x1="64" y1="32" x2="192" y2="144" gradientUnits="userSpaceOnUse">
      <stop offset="0" stop-color="#FF4D00"/>
      <stop offset="1" stop-color="#FF9A00"/>
    </linearGradient>
    <linearGradient id="boxdrop-side" x1="128" y1="96" x2="224" y2="200" gradientUnits="userSpaceOnUse">
      <stop offset="0" stop-color="#00D1FF"/>
      <stop offset="1" stop-color="#0077FF"/>
    </linearGradient>
    <linearGradient id="boxdrop-front" x1="32" y1="96" x2="160" y2="224" gradientUnits="userSpaceOnUse">
      <stop offset="0" stop-color="#FFE66D"/>
      <stop offset="1" stop-color="#FFB000"/>
    </linearGradient>
  </defs>

  <!-- Box top -->
  <path d="M128 32L224 80L128 128L32 80L128 32Z" fill="url(#boxdrop-top)" stroke="#FFFFFF" stroke-width="3" stroke-linejoin="round"/>
  <!-- Box left side -->
  <path d="M32 80L128 128V224L32 176V80Z" fill="url(#boxdrop-front)" stroke="#FFFFFF" stroke-width="3" stroke-linejoin="round"/>
  <!-- Box right side -->
  <path d="M224 80L128 128V224L224 176V80Z" fill="url(#boxdrop-side)" stroke="#FFFFFF" stroke-width="3" stroke-linejoin="round"/>

  <!-- Map pin -->
  <path d="M128 94C112.536 94 100 106.536 100 122C100 143.333 128 174 128 174C128 174 156 143.333 156 122C156 106.536 143.464 94 128 94Z" fill="#0B0F1A"/>
  <circle cx="128" cy="122" r="8" fill="#FFFFFF"/>
</svg>
